<svg width="950" height="386" xmlns="http://www.w3.org/2000/svg">
<rect width="100%" height="100%" fill="white"/>
<text x="30" y="35" font-family="Arial" font-size="22" font-weight="bold">High-Risk Flag Rate by Suggestion Pattern</text>
<text x="30" y="92" font-family="Arial" font-size="14">too intense</text>
<rect x="230" y="70" width="620" height="24" fill="#eef2ff"/>
<rect x="230" y="70" width="620.0" height="24" fill="#4f46e5"/>
<text x="865" y="88" font-family="Arial" font-size="14">100.0%</text>
<text x="30" y="138" font-family="Arial" font-size="14">ignores context</text>
<rect x="230" y="116" width="620" height="24" fill="#eef2ff"/>
<rect x="230" y="116" width="465.0" height="24" fill="#4f46e5"/>
<text x="865" y="134" font-family="Arial" font-size="14">75.0%</text>
<text x="30" y="184" font-family="Arial" font-size="14">vague generic</text>
<rect x="230" y="162" width="620" height="24" fill="#eef2ff"/>
<rect x="230" y="162" width="465.0" height="24" fill="#4f46e5"/>
<text x="865" y="180" font-family="Arial" font-size="14">75.0%</text>
<text x="30" y="230" font-family="Arial" font-size="14">motivation only</text>
<rect x="230" y="208" width="620" height="24" fill="#eef2ff"/>
<rect x="230" y="208" width="413.3333333333333" height="24" fill="#4f46e5"/>
<text x="865" y="226" font-family="Arial" font-size="14">66.7%</text>
<text x="30" y="276" font-family="Arial" font-size="14">missing safety note</text>
<rect x="230" y="254" width="620" height="24" fill="#eef2ff"/>
<rect x="230" y="254" width="124.0" height="24" fill="#4f46e5"/>
<text x="865" y="272" font-family="Arial" font-size="14">20.0%</text>
<text x="30" y="322" font-family="Arial" font-size="14">safe tailored</text>
<rect x="230" y="300" width="620" height="24" fill="#eef2ff"/>
<rect x="230" y="300" width="0.0" height="24" fill="#4f46e5"/>
<text x="865" y="318" font-family="Arial" font-size="14">0.0%</text>
</svg>